<svg preserveAspectRatio="none" width="100%" height="100%" overflow="visible" style="display: block;" viewBox="0 0 40 40" fill="none" xmlns="http://www.w3.org/2000/svg">
<g id="ant-design:file-search-outlined">
<path id="Vector" d="M26.8724 12.1875V10.3125C26.8724 10.1406 26.7318 10 26.5599 10H11.5599C11.388 10 11.2474 10.1406 11.2474 10.3125V12.1875C11.2474 12.3594 11.388 12.5 11.5599 12.5H26.5599C26.7318 12.5 26.8724 12.3594 26.8724 12.1875ZM11.5599 15.625C11.388 15.625 11.2474 15.7656 11.2474 15.9375V17.8125C11.2474 17.9844 11.388 18.125 11.5599 18.125H18.7474C18.9193 18.125 19.0599 17.9844 19.0599 17.8125V15.9375C19.0599 15.7656 18.9193 15.625 18.7474 15.625H11.5599ZM17.1849 33.2813H8.1224V5.78125H29.9974V19.2188C29.9974 19.3906 30.138 19.5313 30.3099 19.5313H32.4974C32.6693 19.5313 32.8099 19.3906 32.8099 19.2188V4.21875C32.8099 3.52734 32.2513 2.96875 31.5599 2.96875H6.5599C5.86849 2.96875 5.3099 3.52734 5.3099 4.21875V34.8438C5.3099 35.5352 5.86849 36.0938 6.5599 36.0938H17.1849C17.3568 36.0938 17.4974 35.9531 17.4974 35.7813V33.5938C17.4974 33.4219 17.3568 33.2813 17.1849 33.2813ZM34.5951 35.293L30.9505 31.6484C31.8216 30.4961 32.3412 29.0586 32.3412 27.5C32.3412 23.7031 29.263 20.625 25.4661 20.625C21.6693 20.625 18.5911 23.7031 18.5911 27.5C18.5911 31.2969 21.6693 34.375 25.4661 34.375C26.8646 34.375 28.1615 33.957 29.2474 33.2422L32.9466 36.9414C33.0091 37.0039 33.0872 37.0313 33.1654 37.0313C33.2435 37.0313 33.3255 37 33.3841 36.9414L34.5951 35.7305C34.6239 35.7018 34.6467 35.6677 34.6623 35.6302C34.678 35.5926 34.686 35.5524 34.686 35.5117C34.686 35.4711 34.678 35.4308 34.6623 35.3933C34.6467 35.3557 34.6239 35.3216 34.5951 35.293ZM25.4661 31.875C23.0482 31.875 21.0911 29.918 21.0911 27.5C21.0911 25.082 23.0482 23.125 25.4661 23.125C27.8841 23.125 29.8412 25.082 29.8412 27.5C29.8412 29.918 27.8841 31.875 25.4661 31.875Z" fill="var(--fill-0, white)"/>
</g>
</svg>
